<mxfile host="app.diagrams.net" modified="2022-04-21T12:37:00.974Z" agent="5.0 (Windows)" etag="vi0H28JjFo9JkcT_FgNq" version="17.4.6" type="github">
  <diagram id="4fOI53WbtxNwQPGj78Yw" name="Page-1">
    <mxGraphModel dx="1021" dy="518" grid="1" gridSize="10" guides="1" tooltips="1" connect="1" arrows="1" fold="1" page="1" pageScale="1" pageWidth="1200" pageHeight="1600" math="0" shadow="0">
      <root>
        <mxCell id="0" />
        <mxCell id="1" parent="0" />
        <mxCell id="12IoQrfV-YSj-Xhp17Uq-1" value="" style="rounded=0;whiteSpace=wrap;html=1;" parent="1" vertex="1">
          <mxGeometry x="588" y="390" width="340" height="240" as="geometry" />
        </mxCell>
        <mxCell id="12IoQrfV-YSj-Xhp17Uq-25" style="edgeStyle=orthogonalEdgeStyle;rounded=0;orthogonalLoop=1;jettySize=auto;html=1;exitX=0;exitY=0.5;exitDx=0;exitDy=0;fontFamily=Verdana;entryX=0;entryY=0.5;entryDx=0;entryDy=0;" parent="1" source="12IoQrfV-YSj-Xhp17Uq-10" target="12IoQrfV-YSj-Xhp17Uq-24" edge="1">
          <mxGeometry relative="1" as="geometry">
            <mxPoint x="538" y="240" as="targetPoint" />
            <Array as="points">
              <mxPoint x="508" y="460" />
              <mxPoint x="508" y="260" />
            </Array>
          </mxGeometry>
        </mxCell>
        <mxCell id="12IoQrfV-YSj-Xhp17Uq-4" value="LANDING" style="text;html=1;align=center;verticalAlign=middle;resizable=0;points=[];autosize=1;strokeColor=none;fillColor=none;fontFamily=Verdana;" parent="1" vertex="1">
          <mxGeometry x="592" y="400" width="70" height="20" as="geometry" />
        </mxCell>
        <mxCell id="12IoQrfV-YSj-Xhp17Uq-7" value="&lt;div&gt;LOGIN Form&lt;br&gt;&lt;/div&gt;&lt;div&gt;[ field: username&lt;/div&gt;&lt;div&gt;field: password ]&lt;br&gt;&lt;/div&gt;" style="rounded=1;whiteSpace=wrap;html=1;fontFamily=Verdana;" parent="1" vertex="1">
          <mxGeometry x="608" y="440" width="130" height="70" as="geometry" />
        </mxCell>
        <mxCell id="12IoQrfV-YSj-Xhp17Uq-8" value="&lt;div&gt;REGISTRATION Form&lt;br&gt;&lt;/div&gt;&lt;div&gt;[ field: username&lt;/div&gt;&lt;div&gt;field: email&lt;br&gt;&lt;/div&gt;&lt;div&gt;field: password ]&lt;br&gt;&lt;/div&gt;" style="rounded=1;whiteSpace=wrap;html=1;fontFamily=Verdana;" parent="1" vertex="1">
          <mxGeometry x="750" y="440" width="161" height="90" as="geometry" />
        </mxCell>
        <mxCell id="12IoQrfV-YSj-Xhp17Uq-9" value="BROWSE Button" style="rounded=1;whiteSpace=wrap;html=1;fontFamily=Verdana;" parent="1" vertex="1">
          <mxGeometry x="754" y="560" width="130" height="50" as="geometry" />
        </mxCell>
        <mxCell id="12IoQrfV-YSj-Xhp17Uq-10" value="" style="ellipse;whiteSpace=wrap;html=1;aspect=fixed;fontFamily=Verdana;" parent="1" vertex="1">
          <mxGeometry x="598" y="450" width="20" height="20" as="geometry" />
        </mxCell>
        <mxCell id="12IoQrfV-YSj-Xhp17Uq-14" style="edgeStyle=orthogonalEdgeStyle;rounded=0;orthogonalLoop=1;jettySize=auto;html=1;exitX=1;exitY=0.5;exitDx=0;exitDy=0;entryX=0;entryY=0.5;entryDx=0;entryDy=0;fontFamily=Verdana;" parent="1" source="12IoQrfV-YSj-Xhp17Uq-11" target="12IoQrfV-YSj-Xhp17Uq-13" edge="1">
          <mxGeometry relative="1" as="geometry" />
        </mxCell>
        <mxCell id="12IoQrfV-YSj-Xhp17Uq-11" value="" style="ellipse;whiteSpace=wrap;html=1;aspect=fixed;fontFamily=Verdana;" parent="1" vertex="1">
          <mxGeometry x="898" y="450" width="20" height="20" as="geometry" />
        </mxCell>
        <mxCell id="12IoQrfV-YSj-Xhp17Uq-46" style="edgeStyle=orthogonalEdgeStyle;rounded=0;orthogonalLoop=1;jettySize=auto;html=1;exitX=1;exitY=0.5;exitDx=0;exitDy=0;fontFamily=Verdana;endArrow=none;endFill=0;" parent="1" source="12IoQrfV-YSj-Xhp17Uq-12" edge="1">
          <mxGeometry relative="1" as="geometry">
            <mxPoint x="1230" y="580" as="targetPoint" />
          </mxGeometry>
        </mxCell>
        <mxCell id="12IoQrfV-YSj-Xhp17Uq-12" value="" style="ellipse;whiteSpace=wrap;html=1;aspect=fixed;fontFamily=Verdana;" parent="1" vertex="1">
          <mxGeometry x="875" y="570" width="20" height="20" as="geometry" />
        </mxCell>
        <mxCell id="12IoQrfV-YSj-Xhp17Uq-15" style="edgeStyle=orthogonalEdgeStyle;rounded=0;orthogonalLoop=1;jettySize=auto;html=1;exitX=0.5;exitY=0;exitDx=0;exitDy=0;entryX=0.75;entryY=0;entryDx=0;entryDy=0;fontFamily=Verdana;" parent="1" source="12IoQrfV-YSj-Xhp17Uq-13" target="12IoQrfV-YSj-Xhp17Uq-1" edge="1">
          <mxGeometry relative="1" as="geometry">
            <Array as="points">
              <mxPoint x="1053" y="340" />
              <mxPoint x="843" y="340" />
            </Array>
          </mxGeometry>
        </mxCell>
        <mxCell id="12IoQrfV-YSj-Xhp17Uq-13" value="&lt;div&gt;REGISTER &lt;br&gt;&lt;/div&gt;&lt;div&gt;USER&lt;/div&gt;" style="shape=parallelogram;perimeter=parallelogramPerimeter;whiteSpace=wrap;html=1;fixedSize=1;fontFamily=Verdana;" parent="1" vertex="1">
          <mxGeometry x="988" y="435" width="130" height="50" as="geometry" />
        </mxCell>
        <mxCell id="12IoQrfV-YSj-Xhp17Uq-16" value="" style="rounded=0;whiteSpace=wrap;html=1;" parent="1" vertex="1">
          <mxGeometry x="1408" y="385" width="710" height="390" as="geometry" />
        </mxCell>
        <mxCell id="12IoQrfV-YSj-Xhp17Uq-17" value="HOME" style="text;html=1;align=center;verticalAlign=middle;resizable=0;points=[];autosize=1;strokeColor=none;fillColor=none;fontFamily=Verdana;" parent="1" vertex="1">
          <mxGeometry x="1422" y="395" width="50" height="20" as="geometry" />
        </mxCell>
        <mxCell id="12IoQrfV-YSj-Xhp17Uq-20" value="Greeter" style="rounded=1;whiteSpace=wrap;html=1;fontFamily=Verdana;" parent="1" vertex="1">
          <mxGeometry x="1455.5" y="580" width="115" height="40" as="geometry" />
        </mxCell>
        <mxCell id="12IoQrfV-YSj-Xhp17Uq-24" value="CHECK LOGIN" style="shape=parallelogram;perimeter=parallelogramPerimeter;whiteSpace=wrap;html=1;fixedSize=1;fontFamily=Verdana;" parent="1" vertex="1">
          <mxGeometry x="598" y="230" width="160" height="60" as="geometry" />
        </mxCell>
        <mxCell id="12IoQrfV-YSj-Xhp17Uq-28" style="edgeStyle=orthogonalEdgeStyle;rounded=0;orthogonalLoop=1;jettySize=auto;html=1;exitX=0.5;exitY=1;exitDx=0;exitDy=0;entryX=0.25;entryY=0;entryDx=0;entryDy=0;fontFamily=Verdana;" parent="1" source="12IoQrfV-YSj-Xhp17Uq-26" target="12IoQrfV-YSj-Xhp17Uq-1" edge="1">
          <mxGeometry relative="1" as="geometry" />
        </mxCell>
        <mxCell id="12IoQrfV-YSj-Xhp17Uq-26" value="" style="ellipse;whiteSpace=wrap;html=1;aspect=fixed;fontFamily=Verdana;" parent="1" vertex="1">
          <mxGeometry x="663" y="280" width="20" height="20" as="geometry" />
        </mxCell>
        <mxCell id="12IoQrfV-YSj-Xhp17Uq-45" style="edgeStyle=orthogonalEdgeStyle;rounded=0;orthogonalLoop=1;jettySize=auto;html=1;fontFamily=Verdana;exitX=1;exitY=0.5;exitDx=0;exitDy=0;endArrow=none;endFill=0;" parent="1" source="12IoQrfV-YSj-Xhp17Uq-62" edge="1">
          <mxGeometry relative="1" as="geometry">
            <mxPoint x="1120" y="260" as="sourcePoint" />
            <mxPoint x="1228" y="580" as="targetPoint" />
          </mxGeometry>
        </mxCell>
        <mxCell id="12IoQrfV-YSj-Xhp17Uq-29" value="" style="ellipse;whiteSpace=wrap;html=1;aspect=fixed;fontFamily=Verdana;" parent="1" vertex="1">
          <mxGeometry x="738" y="250" width="20" height="20" as="geometry" />
        </mxCell>
        <mxCell id="12IoQrfV-YSj-Xhp17Uq-47" style="edgeStyle=orthogonalEdgeStyle;rounded=0;orthogonalLoop=1;jettySize=auto;html=1;entryX=0;entryY=0.5;entryDx=0;entryDy=0;fontFamily=Verdana;" parent="1" target="12IoQrfV-YSj-Xhp17Uq-16" edge="1">
          <mxGeometry relative="1" as="geometry">
            <mxPoint x="1230" y="580" as="sourcePoint" />
          </mxGeometry>
        </mxCell>
        <mxCell id="12IoQrfV-YSj-Xhp17Uq-36" value="User â†’ Session" style="text;html=1;align=center;verticalAlign=middle;resizable=0;points=[];autosize=1;strokeColor=none;fillColor=none;fontFamily=Verdana;" parent="1" vertex="1">
          <mxGeometry x="823" y="240" width="110" height="20" as="geometry" />
        </mxCell>
        <mxCell id="12IoQrfV-YSj-Xhp17Uq-37" value="&lt;i&gt;Success&lt;/i&gt;" style="text;html=1;align=center;verticalAlign=middle;resizable=0;points=[];autosize=1;strokeColor=none;fillColor=none;fontFamily=Verdana;" parent="1" vertex="1">
          <mxGeometry x="738" y="270" width="70" height="20" as="geometry" />
        </mxCell>
        <mxCell id="12IoQrfV-YSj-Xhp17Uq-38" value="Failure" style="text;html=1;align=center;verticalAlign=middle;resizable=0;points=[];autosize=1;strokeColor=none;fillColor=none;fontFamily=Verdana;fontStyle=2" parent="1" vertex="1">
          <mxGeometry x="606" y="292" width="60" height="20" as="geometry" />
        </mxCell>
        <mxCell id="12IoQrfV-YSj-Xhp17Uq-39" value="Submit" style="text;html=1;align=center;verticalAlign=middle;resizable=0;points=[];autosize=1;strokeColor=none;fillColor=none;fontFamily=Verdana;fontStyle=2" parent="1" vertex="1">
          <mxGeometry x="551" y="433" width="60" height="20" as="geometry" />
        </mxCell>
        <mxCell id="12IoQrfV-YSj-Xhp17Uq-40" value="Submit" style="text;html=1;align=center;verticalAlign=middle;resizable=0;points=[];autosize=1;strokeColor=none;fillColor=none;fontFamily=Verdana;fontStyle=2" parent="1" vertex="1">
          <mxGeometry x="906" y="434" width="60" height="20" as="geometry" />
        </mxCell>
        <mxCell id="12IoQrfV-YSj-Xhp17Uq-41" value="Click" style="text;html=1;align=center;verticalAlign=middle;resizable=0;points=[];autosize=1;strokeColor=none;fillColor=none;fontFamily=Verdana;fontStyle=2" parent="1" vertex="1">
          <mxGeometry x="883" y="555" width="50" height="20" as="geometry" />
        </mxCell>
        <mxCell id="12IoQrfV-YSj-Xhp17Uq-60" style="edgeStyle=orthogonalEdgeStyle;rounded=0;orthogonalLoop=1;jettySize=auto;html=1;exitX=0.5;exitY=0;exitDx=0;exitDy=0;entryX=0;entryY=0.5;entryDx=0;entryDy=0;fontFamily=Verdana;" parent="1" source="12IoQrfV-YSj-Xhp17Uq-42" target="12IoQrfV-YSj-Xhp17Uq-59" edge="1">
          <mxGeometry relative="1" as="geometry">
            <Array as="points">
              <mxPoint x="1427" y="302" />
            </Array>
          </mxGeometry>
        </mxCell>
        <mxCell id="12IoQrfV-YSj-Xhp17Uq-42" value="" style="ellipse;whiteSpace=wrap;html=1;aspect=fixed;fontFamily=Verdana;" parent="1" vertex="1">
          <mxGeometry x="1417" y="375" width="20" height="20" as="geometry" />
        </mxCell>
        <mxCell id="12IoQrfV-YSj-Xhp17Uq-43" value="Load" style="text;html=1;align=center;verticalAlign=middle;resizable=0;points=[];autosize=1;strokeColor=none;fillColor=none;fontFamily=Verdana;fontStyle=2" parent="1" vertex="1">
          <mxGeometry x="1378" y="361" width="50" height="20" as="geometry" />
        </mxCell>
        <mxCell id="12IoQrfV-YSj-Xhp17Uq-44" value="Rejected orders List&lt;br&gt;&lt;div&gt;[ databinding: order ]&lt;/div&gt;" style="rounded=1;whiteSpace=wrap;html=1;fontFamily=Verdana;" parent="1" vertex="1">
          <mxGeometry x="1853" y="423" width="220" height="80" as="geometry" />
        </mxCell>
        <mxCell id="12IoQrfV-YSj-Xhp17Uq-48" value="&lt;div&gt;Service Packages List&lt;/div&gt;&lt;div&gt;[ databinding: service package ]&lt;/div&gt;" style="rounded=1;whiteSpace=wrap;html=1;fontFamily=Verdana;" parent="1" vertex="1">
          <mxGeometry x="1853" y="568" width="220" height="80" as="geometry" />
        </mxCell>
        <mxCell id="12IoQrfV-YSj-Xhp17Uq-51" value="SELECT Button" style="rounded=1;whiteSpace=wrap;html=1;fontFamily=Verdana;" parent="1" vertex="1">
          <mxGeometry x="1758" y="690" width="130" height="50" as="geometry" />
        </mxCell>
        <mxCell id="12IoQrfV-YSj-Xhp17Uq-87" style="edgeStyle=orthogonalEdgeStyle;rounded=0;orthogonalLoop=1;jettySize=auto;html=1;exitX=1;exitY=0.5;exitDx=0;exitDy=0;fontFamily=Verdana;endArrow=none;endFill=0;" parent="1" source="12IoQrfV-YSj-Xhp17Uq-52" edge="1">
          <mxGeometry relative="1" as="geometry">
            <mxPoint x="1967" y="890" as="targetPoint" />
          </mxGeometry>
        </mxCell>
        <mxCell id="12IoQrfV-YSj-Xhp17Uq-52" value="" style="ellipse;whiteSpace=wrap;html=1;aspect=fixed;fontFamily=Verdana;" parent="1" vertex="1">
          <mxGeometry x="1878" y="700" width="20" height="20" as="geometry" />
        </mxCell>
        <mxCell id="12IoQrfV-YSj-Xhp17Uq-53" value="LOGOUT Button" style="rounded=1;whiteSpace=wrap;html=1;fontFamily=Verdana;" parent="1" vertex="1">
          <mxGeometry x="1450.5" y="689.5" width="130" height="50" as="geometry" />
        </mxCell>
        <mxCell id="12IoQrfV-YSj-Xhp17Uq-56" style="edgeStyle=orthogonalEdgeStyle;rounded=0;orthogonalLoop=1;jettySize=auto;html=1;exitX=0;exitY=0.5;exitDx=0;exitDy=0;entryX=1;entryY=0.5;entryDx=0;entryDy=0;fontFamily=Verdana;" parent="1" source="12IoQrfV-YSj-Xhp17Uq-54" target="12IoQrfV-YSj-Xhp17Uq-55" edge="1">
          <mxGeometry relative="1" as="geometry" />
        </mxCell>
        <mxCell id="12IoQrfV-YSj-Xhp17Uq-54" value="" style="ellipse;whiteSpace=wrap;html=1;aspect=fixed;fontFamily=Verdana;" parent="1" vertex="1">
          <mxGeometry x="1439.5" y="699.5" width="20" height="20" as="geometry" />
        </mxCell>
        <mxCell id="12IoQrfV-YSj-Xhp17Uq-57" style="edgeStyle=orthogonalEdgeStyle;rounded=0;orthogonalLoop=1;jettySize=auto;html=1;exitX=0;exitY=0.5;exitDx=0;exitDy=0;entryX=0.5;entryY=1;entryDx=0;entryDy=0;fontFamily=Verdana;" parent="1" source="12IoQrfV-YSj-Xhp17Uq-55" target="12IoQrfV-YSj-Xhp17Uq-1" edge="1">
          <mxGeometry relative="1" as="geometry" />
        </mxCell>
        <mxCell id="12IoQrfV-YSj-Xhp17Uq-55" value="LOGOUT" style="shape=parallelogram;perimeter=parallelogramPerimeter;whiteSpace=wrap;html=1;fixedSize=1;fontFamily=Verdana;" parent="1" vertex="1">
          <mxGeometry x="978" y="684.5" width="130" height="50" as="geometry" />
        </mxCell>
        <mxCell id="12IoQrfV-YSj-Xhp17Uq-58" value="Clear Session" style="text;html=1;align=center;verticalAlign=middle;resizable=0;points=[];autosize=1;strokeColor=none;fillColor=none;fontFamily=Verdana;" parent="1" vertex="1">
          <mxGeometry x="823" y="690" width="100" height="20" as="geometry" />
        </mxCell>
        <mxCell id="12IoQrfV-YSj-Xhp17Uq-61" style="edgeStyle=orthogonalEdgeStyle;rounded=0;orthogonalLoop=1;jettySize=auto;html=1;exitX=0.5;exitY=1;exitDx=0;exitDy=0;entryX=0.5;entryY=0;entryDx=0;entryDy=0;fontFamily=Verdana;" parent="1" source="12IoQrfV-YSj-Xhp17Uq-59" target="12IoQrfV-YSj-Xhp17Uq-20" edge="1">
          <mxGeometry relative="1" as="geometry">
            <Array as="points">
              <mxPoint x="1513" y="390" />
              <mxPoint x="1513" y="390" />
            </Array>
          </mxGeometry>
        </mxCell>
        <mxCell id="12IoQrfV-YSj-Xhp17Uq-64" style="edgeStyle=orthogonalEdgeStyle;rounded=0;orthogonalLoop=1;jettySize=auto;html=1;exitX=1;exitY=0.5;exitDx=0;exitDy=0;fontFamily=Verdana;entryX=0;entryY=0.5;entryDx=0;entryDy=0;" parent="1" source="12IoQrfV-YSj-Xhp17Uq-29" target="12IoQrfV-YSj-Xhp17Uq-62" edge="1">
          <mxGeometry relative="1" as="geometry">
            <mxPoint x="980" y="260" as="targetPoint" />
          </mxGeometry>
        </mxCell>
        <mxCell id="12IoQrfV-YSj-Xhp17Uq-69" style="edgeStyle=orthogonalEdgeStyle;rounded=0;orthogonalLoop=1;jettySize=auto;html=1;fontFamily=Verdana;entryX=0;entryY=0.5;entryDx=0;entryDy=0;" parent="1" target="12IoQrfV-YSj-Xhp17Uq-66" edge="1">
          <mxGeometry relative="1" as="geometry">
            <mxPoint x="1638" y="460" as="sourcePoint" />
            <mxPoint x="1368" y="640" as="targetPoint" />
            <Array as="points">
              <mxPoint x="1638" y="608" />
            </Array>
          </mxGeometry>
        </mxCell>
        <mxCell id="12IoQrfV-YSj-Xhp17Uq-70" style="edgeStyle=orthogonalEdgeStyle;rounded=0;orthogonalLoop=1;jettySize=auto;html=1;entryX=0;entryY=0.5;entryDx=0;entryDy=0;fontFamily=Verdana;exitX=1;exitY=0.5;exitDx=0;exitDy=0;" parent="1" source="12IoQrfV-YSj-Xhp17Uq-59" target="12IoQrfV-YSj-Xhp17Uq-65" edge="1">
          <mxGeometry relative="1" as="geometry">
            <mxPoint x="1708" y="370" as="sourcePoint" />
            <Array as="points">
              <mxPoint x="1638" y="302" />
              <mxPoint x="1638" y="463" />
            </Array>
          </mxGeometry>
        </mxCell>
        <mxCell id="12IoQrfV-YSj-Xhp17Uq-59" value="INITIALIZATION" style="shape=parallelogram;perimeter=parallelogramPerimeter;whiteSpace=wrap;html=1;fixedSize=1;fontFamily=Verdana;" parent="1" vertex="1">
          <mxGeometry x="1440.5" y="277" width="145" height="50" as="geometry" />
        </mxCell>
        <mxCell id="12IoQrfV-YSj-Xhp17Uq-62" value="CHECK TRACKED ORDER" style="shape=parallelogram;perimeter=parallelogramPerimeter;whiteSpace=wrap;html=1;fixedSize=1;fontFamily=Verdana;" parent="1" vertex="1">
          <mxGeometry x="980.5" y="235" width="145" height="50" as="geometry" />
        </mxCell>
        <mxCell id="12IoQrfV-YSj-Xhp17Uq-72" style="edgeStyle=orthogonalEdgeStyle;rounded=0;orthogonalLoop=1;jettySize=auto;html=1;exitX=1;exitY=0.5;exitDx=0;exitDy=0;entryX=0;entryY=0.5;entryDx=0;entryDy=0;fontFamily=Verdana;" parent="1" source="12IoQrfV-YSj-Xhp17Uq-65" target="12IoQrfV-YSj-Xhp17Uq-44" edge="1">
          <mxGeometry relative="1" as="geometry" />
        </mxCell>
        <mxCell id="12IoQrfV-YSj-Xhp17Uq-65" value="LOAD REJECTED ORDERS BY USER" style="shape=parallelogram;perimeter=parallelogramPerimeter;whiteSpace=wrap;html=1;fixedSize=1;fontFamily=Verdana;" parent="1" vertex="1">
          <mxGeometry x="1663" y="438" width="145" height="50" as="geometry" />
        </mxCell>
        <mxCell id="12IoQrfV-YSj-Xhp17Uq-71" style="edgeStyle=orthogonalEdgeStyle;rounded=0;orthogonalLoop=1;jettySize=auto;html=1;exitX=1;exitY=0.5;exitDx=0;exitDy=0;entryX=0;entryY=0.5;entryDx=0;entryDy=0;fontFamily=Verdana;" parent="1" source="12IoQrfV-YSj-Xhp17Uq-66" target="12IoQrfV-YSj-Xhp17Uq-48" edge="1">
          <mxGeometry relative="1" as="geometry" />
        </mxCell>
        <mxCell id="12IoQrfV-YSj-Xhp17Uq-66" value="&lt;div&gt;LOAD SERVICE&lt;/div&gt;&lt;div&gt;PACKAGES&lt;br&gt;&lt;/div&gt;" style="shape=parallelogram;perimeter=parallelogramPerimeter;whiteSpace=wrap;html=1;fixedSize=1;fontFamily=Verdana;" parent="1" vertex="1">
          <mxGeometry x="1663" y="583" width="145" height="50" as="geometry" />
        </mxCell>
        <mxCell id="12IoQrfV-YSj-Xhp17Uq-88" style="edgeStyle=orthogonalEdgeStyle;rounded=0;orthogonalLoop=1;jettySize=auto;html=1;exitX=1;exitY=0.5;exitDx=0;exitDy=0;fontFamily=Verdana;endArrow=none;endFill=0;" parent="1" source="12IoQrfV-YSj-Xhp17Uq-74" edge="1">
          <mxGeometry relative="1" as="geometry">
            <Array as="points">
              <mxPoint x="2200" y="593" />
              <mxPoint x="2200" y="850" />
              <mxPoint x="1967" y="850" />
            </Array>
            <mxPoint x="2080" y="593" as="sourcePoint" />
            <mxPoint x="1967" y="850" as="targetPoint" />
          </mxGeometry>
        </mxCell>
        <mxCell id="z5Z8f9fnBnkE9a5eqaD9-6" style="edgeStyle=orthogonalEdgeStyle;rounded=0;orthogonalLoop=1;jettySize=auto;html=1;exitX=1;exitY=0.5;exitDx=0;exitDy=0;endArrow=none;endFill=0;" edge="1" parent="1" source="12IoQrfV-YSj-Xhp17Uq-22">
          <mxGeometry relative="1" as="geometry">
            <mxPoint x="250" y="1145" as="targetPoint" />
            <Array as="points">
              <mxPoint x="2200" y="448" />
              <mxPoint x="2200" y="130" />
              <mxPoint x="130" y="130" />
              <mxPoint x="130" y="1145" />
            </Array>
          </mxGeometry>
        </mxCell>
        <mxCell id="12IoQrfV-YSj-Xhp17Uq-22" value="" style="ellipse;whiteSpace=wrap;html=1;aspect=fixed;fontFamily=Verdana;" parent="1" vertex="1">
          <mxGeometry x="2063" y="438" width="20" height="20" as="geometry" />
        </mxCell>
        <mxCell id="12IoQrfV-YSj-Xhp17Uq-74" value="" style="ellipse;whiteSpace=wrap;html=1;aspect=fixed;fontFamily=Verdana;" parent="1" vertex="1">
          <mxGeometry x="2063" y="583" width="20" height="20" as="geometry" />
        </mxCell>
        <mxCell id="12IoQrfV-YSj-Xhp17Uq-75" value="Click" style="text;html=1;align=center;verticalAlign=middle;resizable=0;points=[];autosize=1;strokeColor=none;fillColor=none;fontFamily=Verdana;fontStyle=2" parent="1" vertex="1">
          <mxGeometry x="1882.5" y="682" width="50" height="20" as="geometry" />
        </mxCell>
        <mxCell id="12IoQrfV-YSj-Xhp17Uq-76" value="Click" style="text;html=1;align=center;verticalAlign=middle;resizable=0;points=[];autosize=1;strokeColor=none;fillColor=none;fontFamily=Verdana;fontStyle=2" parent="1" vertex="1">
          <mxGeometry x="1406.5" y="680.5" width="50" height="20" as="geometry" />
        </mxCell>
        <mxCell id="12IoQrfV-YSj-Xhp17Uq-77" value="Click" style="text;html=1;align=center;verticalAlign=middle;resizable=0;points=[];autosize=1;strokeColor=none;fillColor=none;fontFamily=Verdana;fontStyle=2" parent="1" vertex="1">
          <mxGeometry x="2068" y="564" width="50" height="20" as="geometry" />
        </mxCell>
        <mxCell id="12IoQrfV-YSj-Xhp17Uq-78" value="Click" style="text;html=1;align=center;verticalAlign=middle;resizable=0;points=[];autosize=1;strokeColor=none;fillColor=none;fontFamily=Verdana;fontStyle=2" parent="1" vertex="1">
          <mxGeometry x="2067" y="420" width="50" height="20" as="geometry" />
        </mxCell>
        <mxCell id="12IoQrfV-YSj-Xhp17Uq-90" style="edgeStyle=orthogonalEdgeStyle;rounded=0;orthogonalLoop=1;jettySize=auto;html=1;exitX=0.5;exitY=1;exitDx=0;exitDy=0;entryX=0.75;entryY=0;entryDx=0;entryDy=0;fontFamily=Verdana;" parent="1" target="12IoQrfV-YSj-Xhp17Uq-80" edge="1">
          <mxGeometry relative="1" as="geometry">
            <mxPoint x="1967" y="890" as="sourcePoint" />
          </mxGeometry>
        </mxCell>
        <mxCell id="12IoQrfV-YSj-Xhp17Uq-80" value="" style="rounded=0;whiteSpace=wrap;html=1;" parent="1" vertex="1">
          <mxGeometry x="1435" y="1080" width="710" height="390" as="geometry" />
        </mxCell>
        <mxCell id="12IoQrfV-YSj-Xhp17Uq-81" value="BUYSERVICE" style="text;html=1;align=center;verticalAlign=middle;resizable=0;points=[];autosize=1;strokeColor=none;fillColor=none;fontFamily=Verdana;" parent="1" vertex="1">
          <mxGeometry x="1439" y="1092" width="100" height="20" as="geometry" />
        </mxCell>
        <mxCell id="12IoQrfV-YSj-Xhp17Uq-83" value="&lt;div&gt;&lt;font face=&quot;Verdana&quot;&gt;Username&lt;/font&gt;&lt;/div&gt;" style="whiteSpace=wrap;html=1;fontFamily=Verdana;dashed=1;" parent="1" vertex="1">
          <mxGeometry x="1528" y="440" width="90" height="30" as="geometry" />
        </mxCell>
        <mxCell id="12IoQrfV-YSj-Xhp17Uq-85" value="" style="endArrow=none;html=1;rounded=0;fontFamily=Verdana;dashed=1;" parent="1" edge="1">
          <mxGeometry width="50" height="50" relative="1" as="geometry">
            <mxPoint x="1513.5" y="520" as="sourcePoint" />
            <mxPoint x="1570.5" y="470" as="targetPoint" />
            <Array as="points">
              <mxPoint x="1570.5" y="520" />
            </Array>
          </mxGeometry>
        </mxCell>
        <mxCell id="12IoQrfV-YSj-Xhp17Uq-91" value="Service package ID" style="whiteSpace=wrap;html=1;fontFamily=Verdana;dashed=1;" parent="1" vertex="1">
          <mxGeometry x="2048" y="915" width="120" height="30" as="geometry" />
        </mxCell>
        <mxCell id="12IoQrfV-YSj-Xhp17Uq-92" value="" style="endArrow=none;html=1;rounded=0;fontFamily=Verdana;dashed=1;entryX=0.5;entryY=0;entryDx=0;entryDy=0;" parent="1" target="12IoQrfV-YSj-Xhp17Uq-91" edge="1">
          <mxGeometry width="50" height="50" relative="1" as="geometry">
            <mxPoint x="2108" y="850" as="sourcePoint" />
            <mxPoint x="2108" y="810" as="targetPoint" />
            <Array as="points" />
          </mxGeometry>
        </mxCell>
        <mxCell id="12IoQrfV-YSj-Xhp17Uq-93" value="Greeter" style="rounded=1;whiteSpace=wrap;html=1;fontFamily=Verdana;" parent="1" vertex="1">
          <mxGeometry x="1487" y="1223" width="115" height="40" as="geometry" />
        </mxCell>
        <mxCell id="12IoQrfV-YSj-Xhp17Uq-94" value="LOGOUT Button" style="rounded=1;whiteSpace=wrap;html=1;fontFamily=Verdana;" parent="1" vertex="1">
          <mxGeometry x="1480" y="1340" width="130" height="50" as="geometry" />
        </mxCell>
        <mxCell id="12IoQrfV-YSj-Xhp17Uq-96" value="HOME Button" style="rounded=1;whiteSpace=wrap;html=1;fontFamily=Verdana;" parent="1" vertex="1">
          <mxGeometry x="1480" y="1410" width="130" height="50" as="geometry" />
        </mxCell>
        <mxCell id="12IoQrfV-YSj-Xhp17Uq-100" style="edgeStyle=orthogonalEdgeStyle;rounded=0;orthogonalLoop=1;jettySize=auto;html=1;exitX=0;exitY=0.5;exitDx=0;exitDy=0;fontFamily=Verdana;endArrow=none;endFill=0;" parent="1" source="12IoQrfV-YSj-Xhp17Uq-97" edge="1">
          <mxGeometry relative="1" as="geometry">
            <mxPoint x="1328" y="710" as="targetPoint" />
          </mxGeometry>
        </mxCell>
        <mxCell id="12IoQrfV-YSj-Xhp17Uq-97" value="" style="ellipse;whiteSpace=wrap;html=1;aspect=fixed;fontFamily=Verdana;" parent="1" vertex="1">
          <mxGeometry x="1467.5" y="1350" width="20" height="20" as="geometry" />
        </mxCell>
        <mxCell id="12IoQrfV-YSj-Xhp17Uq-99" value="Click" style="text;html=1;align=center;verticalAlign=middle;resizable=0;points=[];autosize=1;strokeColor=none;fillColor=none;fontFamily=Verdana;fontStyle=2" parent="1" vertex="1">
          <mxGeometry x="1437" y="1401" width="50" height="20" as="geometry" />
        </mxCell>
        <mxCell id="12IoQrfV-YSj-Xhp17Uq-107" style="edgeStyle=orthogonalEdgeStyle;rounded=0;orthogonalLoop=1;jettySize=auto;html=1;exitX=0.5;exitY=0;exitDx=0;exitDy=0;entryX=0;entryY=0.5;entryDx=0;entryDy=0;fontFamily=Verdana;endArrow=classic;endFill=1;" parent="1" source="12IoQrfV-YSj-Xhp17Uq-103" target="12IoQrfV-YSj-Xhp17Uq-105" edge="1">
          <mxGeometry relative="1" as="geometry">
            <Array as="points">
              <mxPoint x="1454" y="955" />
            </Array>
          </mxGeometry>
        </mxCell>
        <mxCell id="12IoQrfV-YSj-Xhp17Uq-103" value="" style="ellipse;whiteSpace=wrap;html=1;aspect=fixed;fontFamily=Verdana;" parent="1" vertex="1">
          <mxGeometry x="1444" y="1070" width="20" height="20" as="geometry" />
        </mxCell>
        <mxCell id="12IoQrfV-YSj-Xhp17Uq-104" value="Load" style="text;html=1;align=center;verticalAlign=middle;resizable=0;points=[];autosize=1;strokeColor=none;fillColor=none;fontFamily=Verdana;fontStyle=2" parent="1" vertex="1">
          <mxGeometry x="1405" y="1056" width="50" height="20" as="geometry" />
        </mxCell>
        <mxCell id="12IoQrfV-YSj-Xhp17Uq-109" style="edgeStyle=orthogonalEdgeStyle;rounded=0;orthogonalLoop=1;jettySize=auto;html=1;exitX=0.5;exitY=1;exitDx=0;exitDy=0;entryX=0.5;entryY=0;entryDx=0;entryDy=0;fontFamily=Verdana;endArrow=classic;endFill=1;" parent="1" source="12IoQrfV-YSj-Xhp17Uq-105" target="12IoQrfV-YSj-Xhp17Uq-93" edge="1">
          <mxGeometry relative="1" as="geometry" />
        </mxCell>
        <mxCell id="12IoQrfV-YSj-Xhp17Uq-123" style="edgeStyle=orthogonalEdgeStyle;rounded=0;orthogonalLoop=1;jettySize=auto;html=1;exitX=1;exitY=0.5;exitDx=0;exitDy=0;entryX=0.5;entryY=0;entryDx=0;entryDy=0;fontFamily=Verdana;endArrow=classic;endFill=1;" parent="1" source="12IoQrfV-YSj-Xhp17Uq-105" target="12IoQrfV-YSj-Xhp17Uq-122" edge="1">
          <mxGeometry relative="1" as="geometry" />
        </mxCell>
        <mxCell id="12IoQrfV-YSj-Xhp17Uq-131" style="edgeStyle=orthogonalEdgeStyle;rounded=0;orthogonalLoop=1;jettySize=auto;html=1;entryX=0.5;entryY=0;entryDx=0;entryDy=0;fontFamily=Verdana;endArrow=classic;endFill=1;" parent="1" target="12IoQrfV-YSj-Xhp17Uq-126" edge="1">
          <mxGeometry relative="1" as="geometry">
            <mxPoint x="1808" y="1110" as="sourcePoint" />
            <Array as="points">
              <mxPoint x="1974" y="1110" />
            </Array>
          </mxGeometry>
        </mxCell>
        <mxCell id="12IoQrfV-YSj-Xhp17Uq-105" value="INITIALIZATION" style="shape=parallelogram;perimeter=parallelogramPerimeter;whiteSpace=wrap;html=1;fixedSize=1;fontFamily=Verdana;" parent="1" vertex="1">
          <mxGeometry x="1472" y="930" width="145" height="50" as="geometry" />
        </mxCell>
        <mxCell id="12IoQrfV-YSj-Xhp17Uq-115" style="edgeStyle=orthogonalEdgeStyle;rounded=0;orthogonalLoop=1;jettySize=auto;html=1;exitX=0;exitY=0.5;exitDx=0;exitDy=0;fontFamily=Verdana;endArrow=none;endFill=0;" parent="1" source="12IoQrfV-YSj-Xhp17Uq-112" edge="1">
          <mxGeometry relative="1" as="geometry">
            <Array as="points">
              <mxPoint x="1468" y="1430" />
              <mxPoint x="1228" y="1430" />
              <mxPoint x="1228" y="605" />
            </Array>
            <mxPoint x="1228" y="580" as="targetPoint" />
          </mxGeometry>
        </mxCell>
        <mxCell id="12IoQrfV-YSj-Xhp17Uq-112" value="" style="ellipse;whiteSpace=wrap;html=1;aspect=fixed;fontFamily=Verdana;" parent="1" vertex="1">
          <mxGeometry x="1467.5" y="1421" width="20" height="20" as="geometry" />
        </mxCell>
        <mxCell id="12IoQrfV-YSj-Xhp17Uq-113" value="Click" style="text;html=1;align=center;verticalAlign=middle;resizable=0;points=[];autosize=1;strokeColor=none;fillColor=none;fontFamily=Verdana;fontStyle=2" parent="1" vertex="1">
          <mxGeometry x="1437" y="1330" width="50" height="20" as="geometry" />
        </mxCell>
        <mxCell id="12IoQrfV-YSj-Xhp17Uq-117" value="&lt;div&gt;Service purchase Form&lt;br&gt;&lt;/div&gt;&lt;div&gt;[ combobox: [ databinding: service package ] &lt;br&gt;&lt;/div&gt;&lt;div&gt;combobox: [ databinding: validity period ]&lt;/div&gt;&lt;div&gt;list: { &lt;br&gt;&lt;/div&gt;&lt;div&gt;checkbox: [ databinding: optional product ]&lt;/div&gt;&lt;div&gt;text: [ databinding: services ]&lt;br&gt;&lt;/div&gt;&lt;div&gt;} ]&lt;/div&gt;" style="rounded=1;whiteSpace=wrap;html=1;fontFamily=Verdana;" parent="1" vertex="1">
          <mxGeometry x="1726" y="1245" width="330" height="150" as="geometry" />
        </mxCell>
        <mxCell id="12IoQrfV-YSj-Xhp17Uq-119" value="CONFIRM Button" style="rounded=1;whiteSpace=wrap;html=1;fontFamily=Verdana;" parent="1" vertex="1">
          <mxGeometry x="1909" y="1375" width="130" height="50" as="geometry" />
        </mxCell>
        <mxCell id="12IoQrfV-YSj-Xhp17Uq-158" style="edgeStyle=orthogonalEdgeStyle;rounded=0;orthogonalLoop=1;jettySize=auto;html=1;exitX=0.5;exitY=1;exitDx=0;exitDy=0;fontFamily=Verdana;endArrow=classic;endFill=1;entryX=1;entryY=0.5;entryDx=0;entryDy=0;" parent="1" source="12IoQrfV-YSj-Xhp17Uq-120" target="z5Z8f9fnBnkE9a5eqaD9-30" edge="1">
          <mxGeometry relative="1" as="geometry">
            <mxPoint x="173" y="1130" as="targetPoint" />
            <Array as="points">
              <mxPoint x="2014" y="1525" />
            </Array>
          </mxGeometry>
        </mxCell>
        <mxCell id="12IoQrfV-YSj-Xhp17Uq-120" value="" style="ellipse;whiteSpace=wrap;html=1;aspect=fixed;fontFamily=Verdana;" parent="1" vertex="1">
          <mxGeometry x="2004" y="1415" width="20" height="20" as="geometry" />
        </mxCell>
        <mxCell id="12IoQrfV-YSj-Xhp17Uq-124" style="edgeStyle=orthogonalEdgeStyle;rounded=0;orthogonalLoop=1;jettySize=auto;html=1;exitX=0.5;exitY=1;exitDx=0;exitDy=0;entryX=0.25;entryY=0;entryDx=0;entryDy=0;fontFamily=Verdana;endArrow=classic;endFill=1;" parent="1" source="12IoQrfV-YSj-Xhp17Uq-122" target="12IoQrfV-YSj-Xhp17Uq-117" edge="1">
          <mxGeometry relative="1" as="geometry" />
        </mxCell>
        <mxCell id="12IoQrfV-YSj-Xhp17Uq-122" value="LOAD SERVICE PACKAGES" style="shape=parallelogram;perimeter=parallelogramPerimeter;whiteSpace=wrap;html=1;fixedSize=1;fontFamily=Verdana;" parent="1" vertex="1">
          <mxGeometry x="1735.5" y="1140" width="145" height="50" as="geometry" />
        </mxCell>
        <mxCell id="12IoQrfV-YSj-Xhp17Uq-132" style="edgeStyle=orthogonalEdgeStyle;rounded=0;orthogonalLoop=1;jettySize=auto;html=1;exitX=0.5;exitY=1;exitDx=0;exitDy=0;entryX=0.75;entryY=0;entryDx=0;entryDy=0;fontFamily=Verdana;endArrow=classic;endFill=1;" parent="1" source="12IoQrfV-YSj-Xhp17Uq-126" target="12IoQrfV-YSj-Xhp17Uq-117" edge="1">
          <mxGeometry relative="1" as="geometry" />
        </mxCell>
        <mxCell id="12IoQrfV-YSj-Xhp17Uq-126" value="&lt;div&gt;LOAD PACKAGE &lt;br&gt;&lt;/div&gt;&lt;div&gt;BY ID&lt;br&gt;&lt;/div&gt;" style="shape=parallelogram;perimeter=parallelogramPerimeter;whiteSpace=wrap;html=1;fixedSize=1;fontFamily=Verdana;" parent="1" vertex="1">
          <mxGeometry x="1901.5" y="1140" width="145" height="50" as="geometry" />
        </mxCell>
        <mxCell id="12IoQrfV-YSj-Xhp17Uq-135" style="edgeStyle=orthogonalEdgeStyle;rounded=0;orthogonalLoop=1;jettySize=auto;html=1;exitX=1;exitY=0.5;exitDx=0;exitDy=0;entryX=1;entryY=0.5;entryDx=0;entryDy=0;fontFamily=Verdana;endArrow=classic;endFill=1;" parent="1" source="12IoQrfV-YSj-Xhp17Uq-133" target="12IoQrfV-YSj-Xhp17Uq-126" edge="1">
          <mxGeometry relative="1" as="geometry">
            <Array as="points">
              <mxPoint x="2238" y="1275" />
              <mxPoint x="2238" y="1165" />
            </Array>
          </mxGeometry>
        </mxCell>
        <mxCell id="12IoQrfV-YSj-Xhp17Uq-133" value="" style="ellipse;whiteSpace=wrap;html=1;aspect=fixed;fontFamily=Verdana;" parent="1" vertex="1">
          <mxGeometry x="2046.5" y="1265" width="20" height="20" as="geometry" />
        </mxCell>
        <mxCell id="12IoQrfV-YSj-Xhp17Uq-134" value="&lt;div&gt;Select service &lt;br&gt;&lt;/div&gt;&lt;div&gt;package in &lt;br&gt;&lt;/div&gt;&lt;div&gt;combobox&lt;/div&gt;" style="text;html=1;align=center;verticalAlign=middle;resizable=0;points=[];autosize=1;strokeColor=none;fillColor=none;fontFamily=Verdana;fontStyle=2" parent="1" vertex="1">
          <mxGeometry x="2041" y="1218" width="100" height="50" as="geometry" />
        </mxCell>
        <mxCell id="12IoQrfV-YSj-Xhp17Uq-136" value="Click" style="text;html=1;align=center;verticalAlign=middle;resizable=0;points=[];autosize=1;strokeColor=none;fillColor=none;fontFamily=Verdana;fontStyle=2" parent="1" vertex="1">
          <mxGeometry x="2018" y="1425" width="50" height="20" as="geometry" />
        </mxCell>
        <mxCell id="12IoQrfV-YSj-Xhp17Uq-137" value="" style="rounded=0;whiteSpace=wrap;html=1;" parent="1" vertex="1">
          <mxGeometry x="337" y="950" width="710" height="390" as="geometry" />
        </mxCell>
        <mxCell id="12IoQrfV-YSj-Xhp17Uq-138" value="CONFIRMATION" style="text;html=1;align=center;verticalAlign=middle;resizable=0;points=[];autosize=1;strokeColor=none;fillColor=none;fontFamily=Verdana;" parent="1" vertex="1">
          <mxGeometry x="335" y="962" width="120" height="20" as="geometry" />
        </mxCell>
        <mxCell id="12IoQrfV-YSj-Xhp17Uq-148" style="edgeStyle=orthogonalEdgeStyle;rounded=0;orthogonalLoop=1;jettySize=auto;html=1;exitX=0.5;exitY=0;exitDx=0;exitDy=0;entryX=0;entryY=0.5;entryDx=0;entryDy=0;fontFamily=Verdana;endArrow=classic;endFill=1;" parent="1" source="12IoQrfV-YSj-Xhp17Uq-139" target="12IoQrfV-YSj-Xhp17Uq-142" edge="1">
          <mxGeometry relative="1" as="geometry">
            <Array as="points">
              <mxPoint x="356" y="845" />
            </Array>
          </mxGeometry>
        </mxCell>
        <mxCell id="12IoQrfV-YSj-Xhp17Uq-139" value="" style="ellipse;whiteSpace=wrap;html=1;aspect=fixed;fontFamily=Verdana;" parent="1" vertex="1">
          <mxGeometry x="346" y="940" width="20" height="20" as="geometry" />
        </mxCell>
        <mxCell id="12IoQrfV-YSj-Xhp17Uq-140" value="Load" style="text;html=1;align=center;verticalAlign=middle;resizable=0;points=[];autosize=1;strokeColor=none;fillColor=none;fontFamily=Verdana;fontStyle=2" parent="1" vertex="1">
          <mxGeometry x="307" y="926" width="50" height="20" as="geometry" />
        </mxCell>
        <mxCell id="12IoQrfV-YSj-Xhp17Uq-149" style="edgeStyle=orthogonalEdgeStyle;rounded=0;orthogonalLoop=1;jettySize=auto;html=1;exitX=0.5;exitY=1;exitDx=0;exitDy=0;entryX=0.5;entryY=0;entryDx=0;entryDy=0;fontFamily=Verdana;endArrow=classic;endFill=1;" parent="1" source="12IoQrfV-YSj-Xhp17Uq-142" target="12IoQrfV-YSj-Xhp17Uq-143" edge="1">
          <mxGeometry relative="1" as="geometry" />
        </mxCell>
        <mxCell id="12IoQrfV-YSj-Xhp17Uq-177" style="edgeStyle=orthogonalEdgeStyle;rounded=0;orthogonalLoop=1;jettySize=auto;html=1;exitX=1;exitY=0.5;exitDx=0;exitDy=0;fontFamily=Verdana;endArrow=classic;endFill=1;entryX=0.5;entryY=0;entryDx=0;entryDy=0;" parent="1" source="12IoQrfV-YSj-Xhp17Uq-142" target="z5Z8f9fnBnkE9a5eqaD9-15" edge="1">
          <mxGeometry relative="1" as="geometry">
            <Array as="points">
              <mxPoint x="550" y="845" />
            </Array>
          </mxGeometry>
        </mxCell>
        <mxCell id="12IoQrfV-YSj-Xhp17Uq-142" value="INITIALIZATION" style="shape=parallelogram;perimeter=parallelogramPerimeter;whiteSpace=wrap;html=1;fixedSize=1;fontFamily=Verdana;" parent="1" vertex="1">
          <mxGeometry x="403" y="820" width="145" height="50" as="geometry" />
        </mxCell>
        <mxCell id="12IoQrfV-YSj-Xhp17Uq-143" value="Greeter" style="rounded=1;whiteSpace=wrap;html=1;fontFamily=Verdana;" parent="1" vertex="1">
          <mxGeometry x="418" y="1016" width="115" height="40" as="geometry" />
        </mxCell>
        <mxCell id="12IoQrfV-YSj-Xhp17Uq-144" value="LOGOUT Button" style="rounded=1;whiteSpace=wrap;html=1;fontFamily=Verdana;" parent="1" vertex="1">
          <mxGeometry x="728" y="1011" width="130" height="50" as="geometry" />
        </mxCell>
        <mxCell id="12IoQrfV-YSj-Xhp17Uq-145" value="RESET Button" style="rounded=1;whiteSpace=wrap;html=1;fontFamily=Verdana;" parent="1" vertex="1">
          <mxGeometry x="880" y="1011" width="130" height="50" as="geometry" />
        </mxCell>
        <mxCell id="12IoQrfV-YSj-Xhp17Uq-146" value="" style="ellipse;whiteSpace=wrap;html=1;aspect=fixed;fontFamily=Verdana;" parent="1" vertex="1">
          <mxGeometry x="823" y="1000" width="20" height="20" as="geometry" />
        </mxCell>
        <mxCell id="12IoQrfV-YSj-Xhp17Uq-147" value="Click" style="text;html=1;align=center;verticalAlign=middle;resizable=0;points=[];autosize=1;strokeColor=none;fillColor=none;fontFamily=Verdana;fontStyle=2" parent="1" vertex="1">
          <mxGeometry x="781" y="991" width="50" height="20" as="geometry" />
        </mxCell>
        <mxCell id="12IoQrfV-YSj-Xhp17Uq-213" style="edgeStyle=orthogonalEdgeStyle;rounded=0;orthogonalLoop=1;jettySize=auto;html=1;exitX=0.5;exitY=0;exitDx=0;exitDy=0;entryX=0.5;entryY=1;entryDx=0;entryDy=0;fontFamily=Verdana;endArrow=classic;endFill=1;" parent="1" source="12IoQrfV-YSj-Xhp17Uq-150" target="12IoQrfV-YSj-Xhp17Uq-211" edge="1">
          <mxGeometry relative="1" as="geometry" />
        </mxCell>
        <mxCell id="12IoQrfV-YSj-Xhp17Uq-150" value="" style="ellipse;whiteSpace=wrap;html=1;aspect=fixed;fontFamily=Verdana;" parent="1" vertex="1">
          <mxGeometry x="975" y="1000" width="20" height="20" as="geometry" />
        </mxCell>
        <mxCell id="12IoQrfV-YSj-Xhp17Uq-151" value="Click" style="text;html=1;align=center;verticalAlign=middle;resizable=0;points=[];autosize=1;strokeColor=none;fillColor=none;fontFamily=Verdana;fontStyle=2" parent="1" vertex="1">
          <mxGeometry x="933" y="991" width="50" height="20" as="geometry" />
        </mxCell>
        <mxCell id="12IoQrfV-YSj-Xhp17Uq-162" style="edgeStyle=orthogonalEdgeStyle;rounded=0;orthogonalLoop=1;jettySize=auto;html=1;entryX=0;entryY=0.5;entryDx=0;entryDy=0;fontFamily=Verdana;endArrow=classic;endFill=1;" parent="1" target="12IoQrfV-YSj-Xhp17Uq-137" edge="1">
          <mxGeometry relative="1" as="geometry">
            <mxPoint x="250" y="1145" as="sourcePoint" />
          </mxGeometry>
        </mxCell>
        <mxCell id="12IoQrfV-YSj-Xhp17Uq-161" style="edgeStyle=orthogonalEdgeStyle;rounded=0;orthogonalLoop=1;jettySize=auto;html=1;exitX=0.5;exitY=0;exitDx=0;exitDy=0;fontFamily=Verdana;endArrow=none;endFill=0;" parent="1" source="12IoQrfV-YSj-Xhp17Uq-159" edge="1">
          <mxGeometry relative="1" as="geometry">
            <mxPoint x="210" y="1150" as="targetPoint" />
            <Array as="points">
              <mxPoint x="1108" y="205" />
              <mxPoint x="210" y="205" />
              <mxPoint x="210" y="1150" />
            </Array>
          </mxGeometry>
        </mxCell>
        <mxCell id="12IoQrfV-YSj-Xhp17Uq-159" value="" style="ellipse;whiteSpace=wrap;html=1;aspect=fixed;fontFamily=Verdana;" parent="1" vertex="1">
          <mxGeometry x="1098" y="225" width="20" height="20" as="geometry" />
        </mxCell>
        <mxCell id="12IoQrfV-YSj-Xhp17Uq-160" value="Exists" style="text;html=1;align=center;verticalAlign=middle;resizable=0;points=[];autosize=1;strokeColor=none;fillColor=none;fontFamily=Verdana;fontStyle=2" parent="1" vertex="1">
          <mxGeometry x="1110" y="209" width="50" height="20" as="geometry" />
        </mxCell>
        <mxCell id="12IoQrfV-YSj-Xhp17Uq-163" value="ACCESS Button" style="rounded=1;whiteSpace=wrap;html=1;fontFamily=Verdana;" parent="1" vertex="1">
          <mxGeometry x="568" y="1011" width="130" height="50" as="geometry" />
        </mxCell>
        <mxCell id="12IoQrfV-YSj-Xhp17Uq-166" style="edgeStyle=orthogonalEdgeStyle;rounded=0;orthogonalLoop=1;jettySize=auto;html=1;exitX=0.5;exitY=0;exitDx=0;exitDy=0;fontFamily=Verdana;endArrow=classic;endFill=1;entryX=0.25;entryY=1;entryDx=0;entryDy=0;" parent="1" source="12IoQrfV-YSj-Xhp17Uq-164" target="12IoQrfV-YSj-Xhp17Uq-1" edge="1">
          <mxGeometry relative="1" as="geometry">
            <mxPoint x="673" y="825" as="targetPoint" />
          </mxGeometry>
        </mxCell>
        <mxCell id="12IoQrfV-YSj-Xhp17Uq-164" value="" style="ellipse;whiteSpace=wrap;html=1;aspect=fixed;fontFamily=Verdana;" parent="1" vertex="1">
          <mxGeometry x="663" y="1000" width="20" height="20" as="geometry" />
        </mxCell>
        <mxCell id="12IoQrfV-YSj-Xhp17Uq-165" value="Click" style="text;html=1;align=center;verticalAlign=middle;resizable=0;points=[];autosize=1;strokeColor=none;fillColor=none;fontFamily=Verdana;fontStyle=2" parent="1" vertex="1">
          <mxGeometry x="621" y="991" width="50" height="20" as="geometry" />
        </mxCell>
        <mxCell id="12IoQrfV-YSj-Xhp17Uq-168" value="BUY Button" style="rounded=1;whiteSpace=wrap;html=1;fontFamily=Verdana;" parent="1" vertex="1">
          <mxGeometry x="378" y="1268" width="130" height="50" as="geometry" />
        </mxCell>
        <mxCell id="12IoQrfV-YSj-Xhp17Uq-180" style="edgeStyle=orthogonalEdgeStyle;rounded=0;orthogonalLoop=1;jettySize=auto;html=1;exitX=0.5;exitY=1;exitDx=0;exitDy=0;entryX=0;entryY=0.5;entryDx=0;entryDy=0;fontFamily=Verdana;endArrow=classic;endFill=1;" parent="1" source="12IoQrfV-YSj-Xhp17Uq-169" target="12IoQrfV-YSj-Xhp17Uq-178" edge="1">
          <mxGeometry relative="1" as="geometry">
            <mxPoint x="488" y="1340" as="sourcePoint" />
            <Array as="points">
              <mxPoint x="488" y="1431" />
            </Array>
          </mxGeometry>
        </mxCell>
        <mxCell id="12IoQrfV-YSj-Xhp17Uq-169" value="" style="ellipse;whiteSpace=wrap;html=1;aspect=fixed;fontFamily=Verdana;" parent="1" vertex="1">
          <mxGeometry x="478" y="1310" width="20" height="20" as="geometry" />
        </mxCell>
        <mxCell id="12IoQrfV-YSj-Xhp17Uq-171" value="Click" style="text;html=1;align=center;verticalAlign=middle;resizable=0;points=[];autosize=1;strokeColor=none;fillColor=none;fontFamily=Verdana;fontStyle=2" parent="1" vertex="1">
          <mxGeometry x="491" y="1314" width="50" height="20" as="geometry" />
        </mxCell>
        <mxCell id="12IoQrfV-YSj-Xhp17Uq-173" value="&lt;div&gt;Summary&lt;/div&gt;&lt;div&gt;[ databinding: order ]&lt;br&gt;&lt;/div&gt;&lt;div&gt;&lt;br&gt;&lt;/div&gt;" style="rounded=1;whiteSpace=wrap;html=1;fontFamily=Verdana;" parent="1" vertex="1">
          <mxGeometry x="850" y="1180" width="160" height="60" as="geometry" />
        </mxCell>
        <mxCell id="12IoQrfV-YSj-Xhp17Uq-176" style="edgeStyle=orthogonalEdgeStyle;rounded=0;orthogonalLoop=1;jettySize=auto;html=1;exitX=1;exitY=0.5;exitDx=0;exitDy=0;entryX=0;entryY=0.5;entryDx=0;entryDy=0;fontFamily=Verdana;endArrow=classic;endFill=1;" parent="1" source="12IoQrfV-YSj-Xhp17Uq-174" target="12IoQrfV-YSj-Xhp17Uq-173" edge="1">
          <mxGeometry relative="1" as="geometry" />
        </mxCell>
        <mxCell id="12IoQrfV-YSj-Xhp17Uq-174" value="&lt;div&gt;LOAD ORDER &lt;br&gt;&lt;/div&gt;&lt;div&gt;BY ID&lt;br&gt;&lt;/div&gt;" style="shape=parallelogram;perimeter=parallelogramPerimeter;whiteSpace=wrap;html=1;fixedSize=1;fontFamily=Verdana;" parent="1" vertex="1">
          <mxGeometry x="477" y="1185" width="145" height="50" as="geometry" />
        </mxCell>
        <mxCell id="12IoQrfV-YSj-Xhp17Uq-178" value="PAYMENT" style="shape=parallelogram;perimeter=parallelogramPerimeter;whiteSpace=wrap;html=1;fixedSize=1;fontFamily=Verdana;" parent="1" vertex="1">
          <mxGeometry x="533" y="1406" width="155" height="50" as="geometry" />
        </mxCell>
        <mxCell id="12IoQrfV-YSj-Xhp17Uq-182" style="edgeStyle=orthogonalEdgeStyle;rounded=0;orthogonalLoop=1;jettySize=auto;html=1;exitX=1;exitY=0.5;exitDx=0;exitDy=0;fontFamily=Verdana;endArrow=none;endFill=0;" parent="1" edge="1">
          <mxGeometry relative="1" as="geometry">
            <mxPoint x="1228" y="1430" as="targetPoint" />
            <Array as="points">
              <mxPoint x="1068" y="1386" />
              <mxPoint x="1068" y="1430" />
              <mxPoint x="1228" y="1430" />
            </Array>
            <mxPoint x="896" y="1386" as="sourcePoint" />
          </mxGeometry>
        </mxCell>
        <mxCell id="12IoQrfV-YSj-Xhp17Uq-183" value="Session.User Session.Guest" style="whiteSpace=wrap;html=1;fontFamily=Verdana;dashed=1;" parent="1" vertex="1">
          <mxGeometry x="2004" y="292" width="100" height="40" as="geometry" />
        </mxCell>
        <mxCell id="12IoQrfV-YSj-Xhp17Uq-184" value="" style="endArrow=none;html=1;rounded=0;fontFamily=Verdana;dashed=1;exitX=0.5;exitY=1;exitDx=0;exitDy=0;" parent="1" source="12IoQrfV-YSj-Xhp17Uq-183" edge="1">
          <mxGeometry width="50" height="50" relative="1" as="geometry">
            <mxPoint x="2171.999999999999" y="217" as="sourcePoint" />
            <mxPoint x="2054" y="387" as="targetPoint" />
            <Array as="points" />
          </mxGeometry>
        </mxCell>
        <mxCell id="12IoQrfV-YSj-Xhp17Uq-190" value="" style="endArrow=none;html=1;rounded=0;fontFamily=Verdana;dashed=1;exitX=0.5;exitY=1;exitDx=0;exitDy=0;" parent="1" edge="1">
          <mxGeometry width="50" height="50" relative="1" as="geometry">
            <mxPoint x="2195" y="1059" as="sourcePoint" />
            <mxPoint x="2145" y="1112" as="targetPoint" />
            <Array as="points">
              <mxPoint x="2195" y="1112" />
            </Array>
          </mxGeometry>
        </mxCell>
        <mxCell id="12IoQrfV-YSj-Xhp17Uq-195" value="Session.User Session.Guest" style="whiteSpace=wrap;html=1;fontFamily=Verdana;dashed=1;" parent="1" vertex="1">
          <mxGeometry x="1078" y="900" width="100" height="30" as="geometry" />
        </mxCell>
        <mxCell id="12IoQrfV-YSj-Xhp17Uq-196" value="" style="endArrow=none;html=1;rounded=0;fontFamily=Verdana;dashed=1;exitX=0.5;exitY=1;exitDx=0;exitDy=0;" parent="1" source="12IoQrfV-YSj-Xhp17Uq-195" edge="1">
          <mxGeometry width="50" height="50" relative="1" as="geometry">
            <mxPoint x="1214.999999999999" y="818.5" as="sourcePoint" />
            <mxPoint x="1047" y="986.5" as="targetPoint" />
            <Array as="points">
              <mxPoint x="1128" y="987" />
            </Array>
          </mxGeometry>
        </mxCell>
        <mxCell id="12IoQrfV-YSj-Xhp17Uq-204" style="edgeStyle=orthogonalEdgeStyle;rounded=0;orthogonalLoop=1;jettySize=auto;html=1;exitX=0.5;exitY=0;exitDx=0;exitDy=0;fontFamily=Verdana;endArrow=none;endFill=0;" parent="1" source="12IoQrfV-YSj-Xhp17Uq-199" edge="1">
          <mxGeometry relative="1" as="geometry">
            <Array as="points">
              <mxPoint x="638" y="1386" />
              <mxPoint x="638" y="1386" />
            </Array>
            <mxPoint x="900" y="1386" as="targetPoint" />
          </mxGeometry>
        </mxCell>
        <mxCell id="12IoQrfV-YSj-Xhp17Uq-199" value="" style="ellipse;whiteSpace=wrap;html=1;aspect=fixed;fontFamily=Verdana;" parent="1" vertex="1">
          <mxGeometry x="600.5" y="1396" width="20" height="20" as="geometry" />
        </mxCell>
        <mxCell id="12IoQrfV-YSj-Xhp17Uq-200" value="" style="ellipse;whiteSpace=wrap;html=1;aspect=fixed;fontFamily=Verdana;" parent="1" vertex="1">
          <mxGeometry x="600.5" y="1446" width="20" height="20" as="geometry" />
        </mxCell>
        <mxCell id="12IoQrfV-YSj-Xhp17Uq-207" style="edgeStyle=orthogonalEdgeStyle;rounded=0;orthogonalLoop=1;jettySize=auto;html=1;exitX=0.5;exitY=1;exitDx=0;exitDy=0;fontFamily=Verdana;endArrow=none;endFill=0;" parent="1" source="12IoQrfV-YSj-Xhp17Uq-200" edge="1">
          <mxGeometry relative="1" as="geometry">
            <mxPoint x="1068" y="1430" as="targetPoint" />
            <Array as="points">
              <mxPoint x="611" y="1470" />
              <mxPoint x="1068" y="1470" />
            </Array>
            <mxPoint x="883" y="1475" as="sourcePoint" />
          </mxGeometry>
        </mxCell>
        <mxCell id="12IoQrfV-YSj-Xhp17Uq-208" value="Success" style="text;html=1;align=center;verticalAlign=middle;resizable=0;points=[];autosize=1;strokeColor=none;fillColor=none;fontFamily=Verdana;fontStyle=2" parent="1" vertex="1">
          <mxGeometry x="541" y="1381" width="70" height="20" as="geometry" />
        </mxCell>
        <mxCell id="12IoQrfV-YSj-Xhp17Uq-209" value="Failure" style="text;html=1;align=center;verticalAlign=middle;resizable=0;points=[];autosize=1;strokeColor=none;fillColor=none;fontFamily=Verdana;fontStyle=2" parent="1" vertex="1">
          <mxGeometry x="548" y="1456" width="60" height="20" as="geometry" />
        </mxCell>
        <mxCell id="12IoQrfV-YSj-Xhp17Uq-214" style="edgeStyle=orthogonalEdgeStyle;rounded=0;orthogonalLoop=1;jettySize=auto;html=1;exitX=1;exitY=0.5;exitDx=0;exitDy=0;fontFamily=Verdana;endArrow=none;endFill=0;" parent="1" source="12IoQrfV-YSj-Xhp17Uq-211" edge="1">
          <mxGeometry relative="1" as="geometry">
            <mxPoint x="1228" y="837.5" as="targetPoint" />
          </mxGeometry>
        </mxCell>
        <mxCell id="12IoQrfV-YSj-Xhp17Uq-211" value="CHECK &lt;br&gt;TRACKED&lt;br&gt;ORDER" style="shape=parallelogram;perimeter=parallelogramPerimeter;whiteSpace=wrap;html=1;fixedSize=1;fontFamily=Verdana;" parent="1" vertex="1">
          <mxGeometry x="920" y="812.5" width="130" height="50" as="geometry" />
        </mxCell>
        <mxCell id="12IoQrfV-YSj-Xhp17Uq-217" style="edgeStyle=orthogonalEdgeStyle;rounded=0;orthogonalLoop=1;jettySize=auto;html=1;exitX=0.5;exitY=0;exitDx=0;exitDy=0;entryX=0.5;entryY=1;entryDx=0;entryDy=0;fontFamily=Verdana;endArrow=classic;endFill=1;" parent="1" source="12IoQrfV-YSj-Xhp17Uq-146" target="12IoQrfV-YSj-Xhp17Uq-55" edge="1">
          <mxGeometry relative="1" as="geometry">
            <mxPoint x="833" y="812.5" as="sourcePoint" />
            <Array as="points">
              <mxPoint x="833" y="780" />
              <mxPoint x="1043" y="780" />
            </Array>
          </mxGeometry>
        </mxCell>
        <mxCell id="12IoQrfV-YSj-Xhp17Uq-218" value="TrackedOrder â†’ Session" style="text;html=1;align=center;verticalAlign=middle;resizable=0;points=[];autosize=1;strokeColor=none;fillColor=none;fontFamily=Verdana;" parent="1" vertex="1">
          <mxGeometry x="1053" y="818" width="170" height="20" as="geometry" />
        </mxCell>
        <mxCell id="z5Z8f9fnBnkE9a5eqaD9-1" value="Guest â†’ Session" style="text;html=1;align=center;verticalAlign=middle;resizable=0;points=[];autosize=1;strokeColor=none;fillColor=none;fontFamily=Verdana;" vertex="1" parent="1">
          <mxGeometry x="978" y="560" width="120" height="20" as="geometry" />
        </mxCell>
        <mxCell id="z5Z8f9fnBnkE9a5eqaD9-7" value="Session.User Session.Guest" style="whiteSpace=wrap;html=1;fontFamily=Verdana;dashed=1;" vertex="1" parent="1">
          <mxGeometry x="2145" y="1016" width="100" height="40" as="geometry" />
        </mxCell>
        <mxCell id="z5Z8f9fnBnkE9a5eqaD9-8" value="&lt;div&gt;&lt;font face=&quot;Verdana&quot;&gt;Username&lt;/font&gt;&lt;/div&gt;" style="whiteSpace=wrap;html=1;fontFamily=Verdana;dashed=1;" vertex="1" parent="1">
          <mxGeometry x="1560.5" y="1112" width="90" height="30" as="geometry" />
        </mxCell>
        <mxCell id="z5Z8f9fnBnkE9a5eqaD9-9" value="" style="endArrow=none;html=1;rounded=0;fontFamily=Verdana;dashed=1;" edge="1" parent="1">
          <mxGeometry width="50" height="50" relative="1" as="geometry">
            <mxPoint x="1546" y="1192" as="sourcePoint" />
            <mxPoint x="1603" y="1142" as="targetPoint" />
            <Array as="points">
              <mxPoint x="1603" y="1192" />
            </Array>
          </mxGeometry>
        </mxCell>
        <mxCell id="z5Z8f9fnBnkE9a5eqaD9-12" value="&lt;div&gt;&lt;font face=&quot;Verdana&quot;&gt;Username&lt;/font&gt;&lt;/div&gt;" style="whiteSpace=wrap;html=1;fontFamily=Verdana;dashed=1;" vertex="1" parent="1">
          <mxGeometry x="376.5" y="882" width="90" height="30" as="geometry" />
        </mxCell>
        <mxCell id="z5Z8f9fnBnkE9a5eqaD9-13" value="" style="endArrow=none;html=1;rounded=0;fontFamily=Verdana;dashed=1;" edge="1" parent="1">
          <mxGeometry width="50" height="50" relative="1" as="geometry">
            <mxPoint x="475" y="940" as="sourcePoint" />
            <mxPoint x="419" y="912" as="targetPoint" />
            <Array as="points">
              <mxPoint x="419" y="940" />
            </Array>
          </mxGeometry>
        </mxCell>
        <mxCell id="z5Z8f9fnBnkE9a5eqaD9-14" value="TrackedOrder â†’ Session" style="text;html=1;align=center;verticalAlign=middle;resizable=0;points=[];autosize=1;strokeColor=none;fillColor=none;fontFamily=Verdana;" vertex="1" parent="1">
          <mxGeometry x="648" y="1190" width="170" height="20" as="geometry" />
        </mxCell>
        <mxCell id="z5Z8f9fnBnkE9a5eqaD9-18" value="" style="edgeStyle=orthogonalEdgeStyle;rounded=0;orthogonalLoop=1;jettySize=auto;html=1;" edge="1" parent="1" source="z5Z8f9fnBnkE9a5eqaD9-15" target="12IoQrfV-YSj-Xhp17Uq-174">
          <mxGeometry relative="1" as="geometry" />
        </mxCell>
        <mxCell id="z5Z8f9fnBnkE9a5eqaD9-20" value="" style="edgeStyle=orthogonalEdgeStyle;rounded=0;orthogonalLoop=1;jettySize=auto;html=1;" edge="1" parent="1" source="z5Z8f9fnBnkE9a5eqaD9-15" target="z5Z8f9fnBnkE9a5eqaD9-17">
          <mxGeometry relative="1" as="geometry" />
        </mxCell>
        <mxCell id="z5Z8f9fnBnkE9a5eqaD9-15" value="" style="ellipse;whiteSpace=wrap;html=1;aspect=fixed;fontFamily=Verdana;" vertex="1" parent="1">
          <mxGeometry x="540" y="1100" width="20" height="20" as="geometry" />
        </mxCell>
        <mxCell id="z5Z8f9fnBnkE9a5eqaD9-22" value="" style="edgeStyle=orthogonalEdgeStyle;rounded=0;orthogonalLoop=1;jettySize=auto;html=1;" edge="1" parent="1" source="z5Z8f9fnBnkE9a5eqaD9-17" target="12IoQrfV-YSj-Xhp17Uq-173">
          <mxGeometry relative="1" as="geometry" />
        </mxCell>
        <mxCell id="z5Z8f9fnBnkE9a5eqaD9-17" value="&lt;div&gt;LOAD TRACKED&lt;/div&gt;&lt;div&gt;ORDER&lt;/div&gt;" style="shape=parallelogram;perimeter=parallelogramPerimeter;whiteSpace=wrap;html=1;fixedSize=1;fontFamily=Verdana;" vertex="1" parent="1">
          <mxGeometry x="857.5" y="1085" width="145" height="50" as="geometry" />
        </mxCell>
        <mxCell id="z5Z8f9fnBnkE9a5eqaD9-23" value="&lt;div&gt;Order ID in&lt;/div&gt;&lt;div&gt;GET request?&lt;br&gt;&lt;/div&gt;" style="text;html=1;align=center;verticalAlign=middle;resizable=0;points=[];autosize=1;strokeColor=none;fillColor=none;fontFamily=Verdana;fontStyle=2" vertex="1" parent="1">
          <mxGeometry x="441" y="1092" width="100" height="30" as="geometry" />
        </mxCell>
        <mxCell id="z5Z8f9fnBnkE9a5eqaD9-24" value="yes" style="text;html=1;align=center;verticalAlign=middle;resizable=0;points=[];autosize=1;strokeColor=none;fillColor=none;fontFamily=Verdana;fontStyle=2" vertex="1" parent="1">
          <mxGeometry x="548" y="1125" width="40" height="20" as="geometry" />
        </mxCell>
        <mxCell id="z5Z8f9fnBnkE9a5eqaD9-25" value="no" style="text;html=1;align=center;verticalAlign=middle;resizable=0;points=[];autosize=1;strokeColor=none;fillColor=none;fontFamily=Verdana;fontStyle=2" vertex="1" parent="1">
          <mxGeometry x="563" y="1090" width="30" height="20" as="geometry" />
        </mxCell>
        <mxCell id="z5Z8f9fnBnkE9a5eqaD9-26" value="Order ID" style="whiteSpace=wrap;html=1;fontFamily=Verdana;dashed=1;" vertex="1" parent="1">
          <mxGeometry x="220" y="945" width="80" height="30" as="geometry" />
        </mxCell>
        <mxCell id="z5Z8f9fnBnkE9a5eqaD9-27" value="" style="endArrow=none;html=1;rounded=0;fontFamily=Verdana;dashed=1;entryX=0;entryY=0.5;entryDx=0;entryDy=0;" edge="1" parent="1" target="z5Z8f9fnBnkE9a5eqaD9-26">
          <mxGeometry width="50" height="50" relative="1" as="geometry">
            <mxPoint x="130" y="960" as="sourcePoint" />
            <mxPoint x="260" y="886" as="targetPoint" />
            <Array as="points" />
          </mxGeometry>
        </mxCell>
        <mxCell id="z5Z8f9fnBnkE9a5eqaD9-31" style="edgeStyle=orthogonalEdgeStyle;rounded=0;orthogonalLoop=1;jettySize=auto;html=1;exitX=0;exitY=0.5;exitDx=0;exitDy=0;endArrow=none;endFill=0;" edge="1" parent="1" source="z5Z8f9fnBnkE9a5eqaD9-30">
          <mxGeometry relative="1" as="geometry">
            <mxPoint x="210" y="1140" as="targetPoint" />
            <Array as="points">
              <mxPoint x="210" y="1525" />
              <mxPoint x="210" y="1140" />
            </Array>
          </mxGeometry>
        </mxCell>
        <mxCell id="z5Z8f9fnBnkE9a5eqaD9-30" value="ORDER CREATION" style="shape=parallelogram;perimeter=parallelogramPerimeter;whiteSpace=wrap;html=1;fixedSize=1;fontFamily=Verdana;" vertex="1" parent="1">
          <mxGeometry x="1210" y="1500" width="155" height="50" as="geometry" />
        </mxCell>
        <mxCell id="z5Z8f9fnBnkE9a5eqaD9-32" value="Click" style="text;html=1;align=center;verticalAlign=middle;resizable=0;points=[];autosize=1;strokeColor=none;fillColor=none;fontFamily=Verdana;fontStyle=2" vertex="1" parent="1">
          <mxGeometry x="1406.5" y="680.5" width="50" height="20" as="geometry" />
        </mxCell>
        <mxCell id="z5Z8f9fnBnkE9a5eqaD9-33" value="" style="ellipse;whiteSpace=wrap;html=1;aspect=fixed;fontFamily=Verdana;" vertex="1" parent="1">
          <mxGeometry x="1439.5" y="699.5" width="20" height="20" as="geometry" />
        </mxCell>
        <mxCell id="z5Z8f9fnBnkE9a5eqaD9-34" value="LOGOUT Button" style="rounded=1;whiteSpace=wrap;html=1;fontFamily=Verdana;" vertex="1" parent="1">
          <mxGeometry x="1450.5" y="639.5" width="130" height="50" as="geometry" />
        </mxCell>
        <mxCell id="z5Z8f9fnBnkE9a5eqaD9-35" value="Click" style="text;html=1;align=center;verticalAlign=middle;resizable=0;points=[];autosize=1;strokeColor=none;fillColor=none;fontFamily=Verdana;fontStyle=2" vertex="1" parent="1">
          <mxGeometry x="1406.5" y="630.5" width="50" height="20" as="geometry" />
        </mxCell>
        <mxCell id="z5Z8f9fnBnkE9a5eqaD9-37" style="edgeStyle=orthogonalEdgeStyle;rounded=0;orthogonalLoop=1;jettySize=auto;html=1;exitX=0;exitY=0.5;exitDx=0;exitDy=0;entryX=0.75;entryY=1;entryDx=0;entryDy=0;endArrow=classic;endFill=1;" edge="1" parent="1" source="z5Z8f9fnBnkE9a5eqaD9-36" target="12IoQrfV-YSj-Xhp17Uq-1">
          <mxGeometry relative="1" as="geometry" />
        </mxCell>
        <mxCell id="z5Z8f9fnBnkE9a5eqaD9-36" value="" style="ellipse;whiteSpace=wrap;html=1;aspect=fixed;fontFamily=Verdana;" vertex="1" parent="1">
          <mxGeometry x="1439.5" y="649.5" width="20" height="20" as="geometry" />
        </mxCell>
        <mxCell id="z5Z8f9fnBnkE9a5eqaD9-38" value="ACCESS Button" style="rounded=1;whiteSpace=wrap;html=1;fontFamily=Verdana;" vertex="1" parent="1">
          <mxGeometry x="1480" y="1290" width="130" height="50" as="geometry" />
        </mxCell>
        <mxCell id="z5Z8f9fnBnkE9a5eqaD9-41" style="edgeStyle=orthogonalEdgeStyle;rounded=0;orthogonalLoop=1;jettySize=auto;html=1;exitX=0;exitY=0.5;exitDx=0;exitDy=0;endArrow=none;endFill=0;" edge="1" parent="1" source="z5Z8f9fnBnkE9a5eqaD9-39">
          <mxGeometry relative="1" as="geometry">
            <mxPoint x="1370" y="660" as="targetPoint" />
          </mxGeometry>
        </mxCell>
        <mxCell id="z5Z8f9fnBnkE9a5eqaD9-39" value="" style="ellipse;whiteSpace=wrap;html=1;aspect=fixed;fontFamily=Verdana;" vertex="1" parent="1">
          <mxGeometry x="1467.5" y="1300" width="20" height="20" as="geometry" />
        </mxCell>
        <mxCell id="z5Z8f9fnBnkE9a5eqaD9-40" value="Click" style="text;html=1;align=center;verticalAlign=middle;resizable=0;points=[];autosize=1;strokeColor=none;fillColor=none;fontFamily=Verdana;fontStyle=2" vertex="1" parent="1">
          <mxGeometry x="1437" y="1280" width="50" height="20" as="geometry" />
        </mxCell>
        <mxCell id="z5Z8f9fnBnkE9a5eqaD9-42" value="&lt;div&gt;Employee Login&lt;/div&gt;&lt;div&gt;Button&lt;br&gt;&lt;/div&gt;" style="rounded=1;whiteSpace=wrap;html=1;fontFamily=Verdana;" vertex="1" parent="1">
          <mxGeometry x="608" y="560" width="130" height="50" as="geometry" />
        </mxCell>
        <mxCell id="z5Z8f9fnBnkE9a5eqaD9-45" style="edgeStyle=orthogonalEdgeStyle;rounded=0;orthogonalLoop=1;jettySize=auto;html=1;exitX=0;exitY=0.5;exitDx=0;exitDy=0;endArrow=classic;endFill=1;" edge="1" parent="1" source="z5Z8f9fnBnkE9a5eqaD9-43">
          <mxGeometry relative="1" as="geometry">
            <mxPoint x="510" y="578.3333333333334" as="targetPoint" />
          </mxGeometry>
        </mxCell>
        <mxCell id="z5Z8f9fnBnkE9a5eqaD9-43" value="" style="ellipse;whiteSpace=wrap;html=1;aspect=fixed;fontFamily=Verdana;" vertex="1" parent="1">
          <mxGeometry x="598" y="568" width="20" height="20" as="geometry" />
        </mxCell>
        <mxCell id="z5Z8f9fnBnkE9a5eqaD9-44" value="Click" style="text;html=1;align=center;verticalAlign=middle;resizable=0;points=[];autosize=1;strokeColor=none;fillColor=none;fontFamily=Verdana;fontStyle=2" vertex="1" parent="1">
          <mxGeometry x="560" y="550" width="50" height="20" as="geometry" />
        </mxCell>
        <mxCell id="z5Z8f9fnBnkE9a5eqaD9-46" value="" style="rounded=0;whiteSpace=wrap;html=1;" vertex="1" parent="1">
          <mxGeometry x="337" y="534.75" width="172" height="90.5" as="geometry" />
        </mxCell>
        <mxCell id="z5Z8f9fnBnkE9a5eqaD9-48" value="&lt;div&gt;EMPLOYEE&lt;/div&gt;&lt;div&gt;LANDING&lt;/div&gt;&lt;div&gt;PAGE&lt;br&gt;&lt;/div&gt;" style="text;html=1;align=center;verticalAlign=middle;resizable=0;points=[];autosize=1;strokeColor=none;fillColor=none;fontFamily=Verdana;" vertex="1" parent="1">
          <mxGeometry x="386.5" y="555" width="80" height="50" as="geometry" />
        </mxCell>
      </root>
    </mxGraphModel>
  </diagram>
</mxfile>
